<?xml version="1.0" encoding="UTF-8"?>
<svg width="40px" height="40px" viewBox="0 0 40 40" version="1.1" xmlns="http://www.w3.org/2000/svg" xmlns:xlink="http://www.w3.org/1999/xlink">
    <title>Toggler Icon 40x40</title>
    <g id="Page-1" stroke="none" stroke-width="1" fill="none" fill-rule="evenodd">
        <g id="Rectangle-Group-40x40">
            <rect id="BackgroundSquare" x="0" y="0" width="40" height="40"></rect>
            <rect id="Rectangle" fill="#373A3C" x="4" y="4" width="32" height="32" rx="3"></rect>
            <path d="M18.8571429,24 L18.8571429,17.2222222 L18.8571429,17.2222222 L17,17.2222222 C16.4477153,17.2222222 16,16.774507 16,16.2222222 L16,16 C16,15.4477153 16.4477153,15 17,15 L23,15 C23.5522847,15 24,15.4477153 24,16 L24,16.2222222 C24,16.774507 23.5522847,17.2222222 23,17.2222222 L21.1428571,17.2222222 L21.1428571,17.2222222 L21.1428571,24 C21.1428571,24.5522847 20.6951419,25 20.1428571,25 L19.8571429,25 C19.3048581,25 18.8571429,24.5522847 18.8571429,24 Z" id="Path-3" fill="#D8D8D8"></path>
            <path d="M24,10.1176471 L26.7058824,10.1176471 L26.7058824,10.1176471 L26.8823529,10.1176471 C28.5392072,10.1176471 29.8823529,11.4607928 29.8823529,13.1176471 L29.8823529,13.2941176 L29.8823529,13.2941176 L29.8823529,16 C29.8823529,16.5522847 30.3300682,17 30.8823529,17 L31,17 C31.5522847,17 32,16.5522847 32,16 L32,13.2941176 L32,13.2941176 L32,11 C32,9.34314575 30.6568542,8 29,8 L26.7058824,8 L26.7058824,8 L24,8 C23.4477153,8 23,8.44771525 23,9 L23,9.11764706 C23,9.66993181 23.4477153,10.1176471 24,10.1176471 Z" id="Path-4" fill="#DB5860"></path>
            <path d="M9,10.1176471 L11.7058824,10.1176471 L11.7058824,10.1176471 L11.8823529,10.1176471 C13.5392072,10.1176471 14.8823529,11.4607928 14.8823529,13.1176471 L14.8823529,13.2941176 L14.8823529,13.2941176 L14.8823529,16 C14.8823529,16.5522847 15.3300682,17 15.8823529,17 L16,17 C16.5522847,17 17,16.5522847 17,16 L17,13.2941176 L17,13.2941176 L17,11 C17,9.34314575 15.6568542,8 14,8 L11.7058824,8 L11.7058824,8 L9,8 C8.44771525,8 8,8.44771525 8,9 L8,9.11764706 C8,9.66993181 8.44771525,10.1176471 9,10.1176471 Z" id="Path-4-Copy" fill="#389FD6" transform="translate(12.500000, 12.500000) rotate(-90.000000) translate(-12.500000, -12.500000) "></path>
            <path d="M24,25.1176471 L26.7058824,25.1176471 L26.7058824,25.1176471 L26.8823529,25.1176471 C28.5392072,25.1176471 29.8823529,26.4607928 29.8823529,28.1176471 L29.8823529,28.2941176 L29.8823529,28.2941176 L29.8823529,31 C29.8823529,31.5522847 30.3300682,32 30.8823529,32 L31,32 C31.5522847,32 32,31.5522847 32,31 L32,28.2941176 L32,28.2941176 L32,26 C32,24.3431458 30.6568542,23 29,23 L26.7058824,23 L26.7058824,23 L24,23 C23.4477153,23 23,23.4477153 23,24 L23,24.1176471 C23,24.6699318 23.4477153,25.1176471 24,25.1176471 Z" id="Path-4-Copy-3" fill="#EDA200" transform="translate(27.500000, 27.500000) scale(1, -1) translate(-27.500000, -27.500000) "></path>
            <path d="M9,25.1176471 L11.7058824,25.1176471 L11.7058824,25.1176471 L11.8823529,25.1176471 C13.5392072,25.1176471 14.8823529,26.4607928 14.8823529,28.1176471 L14.8823529,28.2941176 L14.8823529,28.2941176 L14.8823529,31 C14.8823529,31.5522847 15.3300682,32 15.8823529,32 L16,32 C16.5522847,32 17,31.5522847 17,31 L17,28.2941176 L17,28.2941176 L17,26 C17,24.3431458 15.6568542,23 14,23 L11.7058824,23 L11.7058824,23 L9,23 C8.44771525,23 8,23.4477153 8,24 L8,24.1176471 C8,24.6699318 8.44771525,25.1176471 9,25.1176471 Z" id="Path-4-Copy-2" fill="#59A869" transform="translate(12.500000, 27.500000) scale(1, -1) rotate(-90.000000) translate(-12.500000, -27.500000) "></path>
        </g>
    </g>
</svg>